# xmcd
#
# Track frame offsets:
#	150
#	17976
#	33733
#	53990
#	74552
#	91899
#	105583
#	122429
#	136679
#	157954
#	177900
#	198779
#	212229
#
# Disc length: 3050 seconds
#
# Revision: 1
# Processed by: cddbd v1.5.2PL0 Copyright (c) Steve Scherf et al.
# Submitted via: audiograbber 1.83.01
#
DISCID=b00be80d
DTITLE=Comanche Moon - Old Dogs Comanche Moon
DYEAR=2001
DGENRE=Country
TTITLE0=Bigger Stones
TTITLE1=Dancing With My Shadow
TTITLE2=Old Dogs
TTITLE3=Hollywood Hills
TTITLE4=Nickels And Dimes
TTITLE5=I´ve Been Out
TTITLE6=Drink Alone
TTITLE7=Rains Of Hope
TTITLE8=Windshield Full Of Sky
TTITLE9=Hawk On My Heart
TTITLE10=Nervous Cafe12
TTITLE11=Mr And Mrs. Blue
TTITLE12=Cabernet Canyons
EXTD=
EXTT0=
EXTT1=
EXTT2=
EXTT3=
EXTT4=
EXTT5=
EXTT6=
EXTT7=
EXTT8=
EXTT9=
EXTT10=
EXTT11=
EXTT12=
PLAYORDER=
